<svg width="40" height="52" viewBox="0 0 40 52" fill="none" xmlns="http://www.w3.org/2000/svg">
<path d="M7.555 51.125H32.445C37.297 51.125 39.711 48.664 39.711 43.789V22.508C39.711 19.484 39.383 18.172 37.508 16.25L24.57 3.102C22.79 1.273 21.336 0.875 18.688 0.875H7.555C2.727 0.875 0.289001 3.359 0.289001 8.235V43.789C0.289001 48.687 2.727 51.125 7.555 51.125ZM7.742 47.352C5.328 47.352 4.062 46.062 4.062 43.719V8.305C4.062 5.985 5.328 4.648 7.766 4.648H18.172V18.266C18.172 21.219 19.672 22.672 22.578 22.672H35.938V43.719C35.938 46.062 34.695 47.352 32.258 47.352H7.742ZM23 19.132C22.086 19.132 21.71 18.758 21.71 17.82V5.375L35.21 19.133L23 19.132Z" fill="black"/>
</svg>
