<svg width="18" height="18" viewBox="0 0 18 18" fill="none" xmlns="http://www.w3.org/2000/svg">
<path d="M4 4.76V13.25H8.08L8.68 12.34C9.84 10.55 11.93 9.75 13.47 9.75C14 9.75 14.45 9.84 14.79 10C15.7 10.41 15.95 11.18 16 11.74C16.08 12.87 15.5 14.03 14.5 14.71C13.6 15.33 11.44 16 8.87 16C7.12 16 4.61 15.69 2.12 14.3C2.41 11.85 3 7.88 4 4.76ZM4 0C1 4.09 0 15.34 0 15.34C2.9 17.31 6.08 18 8.87 18C11.86 18 14.39 17.21 15.64 16.36C18.64 14.32 18.94 9.71 15.64 8.18C15 7.89 14.26 7.75 13.47 7.75C11.17 7.75 8.5 8.96 7 11.25H6V4.09H8L9 1L4 0Z" fill="black"/>
</svg>
