<svg width="256" height="331" viewBox="0 0 256 331" fill="none" xmlns="http://www.w3.org/2000/svg">
<g clip-path="url(#clip0_4_12)">
<path d="M110.055 162.357C132.146 141.31 125.404 115.279 105.397 83.7346C85.3895 52.1907 45.1145 40.9685 37.6008 48.1269C30.0871 55.2852 28.4229 106.467 48.4299 138.011C68.4377 169.555 87.9629 183.405 110.055 162.357Z" fill="url(#paint0_linear_4_12)"/>
<path d="M129.156 165.27C145.499 191.038 167.348 181.616 194.393 155.85C221.437 130.082 232.651 80.7246 227.093 71.9611C221.534 63.1976 179.292 63.6362 152.248 89.4036C125.203 115.17 112.813 139.504 129.156 165.27Z" fill="url(#paint1_linear_4_12)"/>
<path d="M120.22 151.096C147.357 154.428 158.029 129.357 163.004 88.8326C167.98 48.3069 147.468 5.47489 138.239 4.34162C129.009 3.20836 98.001 39.7145 93.025 80.2402C88.0492 120.765 93.0824 147.763 120.22 151.096Z" fill="url(#paint2_linear_4_12)"/>
<path d="M113.386 330.307C170.282 330.307 216.424 313.779 216.424 238.825C216.424 163.87 170.282 102.363 113.386 102.363C56.489 102.363 10.384 163.87 10.384 238.825C10.384 313.779 56.489 330.307 113.386 330.307Z" fill="url(#paint3_linear_4_12)"/>
<path d="M165.427 223.522C173.555 223.522 180.144 220.457 180.144 216.677C180.144 212.897 173.555 209.832 165.427 209.832C157.299 209.832 150.71 212.897 150.71 216.677C150.71 220.457 157.299 223.522 165.427 223.522Z" fill="#EAADCC"/>
<path d="M56.4388 219.364C64.5062 220.355 71.4196 218.116 71.8803 214.364C72.341 210.611 66.1746 206.767 58.1072 205.776C50.0398 204.785 43.1264 207.024 42.6657 210.776C42.205 214.529 48.3714 218.373 56.4388 219.364Z" fill="#EAADCC"/>
<path d="M96.266 210.285C96.1181 210.055 95.9258 209.857 95.7003 209.702C95.4748 209.547 95.2207 209.439 94.9529 209.384C94.685 209.329 94.4089 209.328 94.1406 209.381C93.8723 209.434 93.6173 209.54 93.3905 209.692C93.1638 209.845 92.9698 210.042 92.82 210.271C92.6702 210.499 92.5675 210.756 92.5181 211.025C92.4687 211.294 92.4735 211.57 92.5322 211.837C92.5909 212.104 92.7023 212.357 92.86 212.58C96.011 217.256 100.857 219.97 107.233 220.699C113.581 221.424 119.249 219.797 124.11 215.847C124.327 215.68 124.508 215.47 124.643 215.232C124.778 214.993 124.864 214.73 124.895 214.458C124.927 214.186 124.904 213.91 124.827 213.647C124.75 213.383 124.622 213.138 124.449 212.926C124.276 212.713 124.062 212.537 123.821 212.408C123.579 212.279 123.313 212.2 123.04 212.175C122.768 212.151 122.492 212.181 122.231 212.264C121.97 212.347 121.728 212.482 121.52 212.66C117.521 215.909 112.957 217.219 107.7 216.618C102.47 216.02 98.714 213.918 96.266 210.285ZM65.818 178.63C67.7498 178.56 69.6765 178.873 71.4872 179.55C73.2979 180.227 74.9569 181.255 76.369 182.575C77.7847 183.891 78.9262 185.475 79.728 187.234C80.5298 188.993 80.976 190.893 81.041 192.825C81.1108 194.757 80.7983 196.683 80.1213 198.494C79.4443 200.304 78.4161 201.963 77.096 203.375C75.7795 204.791 74.1963 205.932 72.4372 206.734C70.6782 207.536 68.778 207.982 66.846 208.047C64.9141 208.117 62.9875 207.805 61.1768 207.128C59.3661 206.451 57.707 205.422 56.295 204.102C54.8797 202.785 53.7386 201.202 52.9372 199.443C52.1358 197.684 51.6898 195.784 51.625 193.852C51.5549 191.92 51.8673 189.994 52.5442 188.183C53.221 186.373 54.249 184.714 55.569 183.302C56.8853 181.886 58.4684 180.745 60.2272 179.943C61.9861 179.141 63.8861 178.695 65.818 178.63Z" fill="black"/>
<path d="M66.59 190.932C66.5709 190.301 66.4273 189.68 66.1675 189.105C65.9077 188.53 65.5368 188.011 65.0761 187.58C64.6154 187.148 64.074 186.812 63.483 186.59C62.892 186.369 62.263 186.266 61.6322 186.288C61.0014 186.31 60.3811 186.457 59.8071 186.719C59.2331 186.982 58.7166 187.355 58.2873 187.818C57.858 188.281 57.5243 188.824 57.3055 189.416C57.0866 190.008 56.9869 190.637 57.012 191.268C57.0566 192.538 57.6039 193.739 58.5336 194.605C59.4633 195.472 60.6993 195.934 61.9695 195.889C63.2398 195.845 64.4403 195.298 65.307 194.368C66.1737 193.438 66.6356 192.202 66.591 190.932" fill="white"/>
<path d="M154.99 182.366C156.922 182.296 158.849 182.608 160.66 183.285C162.47 183.962 164.13 184.99 165.542 186.31C166.957 187.627 168.098 189.21 168.9 190.969C169.701 192.728 170.147 194.628 170.212 196.56C170.282 198.492 169.97 200.418 169.293 202.229C168.616 204.04 167.588 205.699 166.268 207.111C164.951 208.527 163.368 209.668 161.609 210.469C159.85 211.271 157.95 211.717 156.018 211.782C154.086 211.852 152.16 211.539 150.349 210.862C148.539 210.185 146.88 209.157 145.468 207.837C144.052 206.521 142.911 204.937 142.109 203.178C141.307 201.419 140.861 199.519 140.796 197.587C140.726 195.655 141.039 193.729 141.716 191.918C142.393 190.108 143.421 188.449 144.741 187.037C146.057 185.622 147.641 184.48 149.4 183.679C151.159 182.877 153.058 182.431 154.99 182.366Z" fill="black"/>
<path d="M65.71 175.552C75.534 175.209 83.776 182.894 84.119 192.717C84.462 202.541 76.777 210.782 66.953 211.125C57.129 211.468 48.889 203.783 48.546 193.959C48.203 184.136 55.887 175.895 65.71 175.552ZM77.962 192.932C77.738 186.509 72.349 181.484 65.925 181.709C59.503 181.933 54.478 187.321 54.703 193.744C54.927 200.168 60.315 205.192 66.738 204.968C73.161 204.744 78.186 199.356 77.962 192.932ZM154.883 179.287C164.707 178.944 172.948 186.629 173.291 196.452C173.634 206.276 165.949 214.517 156.126 214.86C146.302 215.203 138.061 207.518 137.718 197.695C137.375 187.871 145.06 179.63 154.883 179.287ZM167.134 196.667C166.91 190.244 161.522 185.22 155.098 185.444C148.675 185.668 143.65 191.057 143.875 197.48C144.099 203.903 149.487 208.928 155.91 208.704C162.334 208.479 167.358 203.091 167.134 196.667Z" fill="white"/>
<path d="M155.763 194.668C155.744 194.037 155.601 193.415 155.342 192.84C155.082 192.264 154.711 191.745 154.251 191.313C153.79 190.882 153.248 190.545 152.657 190.323C152.066 190.101 151.437 189.998 150.806 190.02C150.174 190.042 149.554 190.189 148.98 190.452C148.405 190.714 147.889 191.088 147.459 191.551C147.03 192.014 146.696 192.557 146.478 193.15C146.259 193.742 146.159 194.372 146.185 195.003C146.236 196.268 146.786 197.462 147.715 198.323C148.643 199.184 149.875 199.643 151.141 199.598C152.406 199.554 153.603 199.011 154.469 198.087C155.335 197.163 155.8 195.934 155.763 194.668Z" fill="white"/>
<path d="M38.083 243.16L60.413 266.395L76.435 249.351C77.1225 248.639 78.0628 248.226 79.0524 248.202C80.0419 248.178 81.0012 248.545 81.7224 249.223C82.4436 249.901 82.8688 250.835 82.906 251.825C82.9432 252.814 82.5893 253.778 81.921 254.508L65.638 271.832L88.738 295.868C89.0806 296.225 89.3497 296.645 89.5297 297.106C89.7098 297.566 89.7975 298.058 89.7876 298.552C89.7778 299.046 89.6707 299.534 89.4724 299.987C89.2741 300.44 88.9885 300.849 88.632 301.192C88.2755 301.535 87.8549 301.804 87.3944 301.984C86.9339 302.164 86.4424 302.251 85.948 302.242C85.4537 302.232 84.9661 302.125 84.5131 301.926C84.0601 301.728 83.6506 301.443 83.308 301.086L60.474 277.325L49.749 288.735C49.4103 289.095 49.004 289.385 48.5533 289.588C48.1025 289.792 47.6162 289.904 47.122 289.919C46.6278 289.934 46.1354 289.852 45.673 289.677C45.2106 289.502 44.7872 289.238 44.427 288.899C44.0668 288.56 43.7768 288.154 43.5736 287.703C43.3704 287.252 43.258 286.766 43.2428 286.272C43.2275 285.778 43.3098 285.285 43.4848 284.823C43.6599 284.361 43.9243 283.937 44.263 283.577L55.249 271.889L32.654 248.378C32.3114 248.021 32.0423 247.601 31.8622 247.14C31.6821 246.68 31.5945 246.188 31.6044 245.694C31.6142 245.2 31.7213 244.712 31.9196 244.259C32.1179 243.806 32.4035 243.397 32.76 243.054C33.1165 242.711 33.5371 242.442 33.9976 242.262C34.4581 242.082 34.9496 241.995 35.4439 242.004C35.9383 242.014 36.4259 242.121 36.8789 242.32C37.3319 242.518 37.7404 242.803 38.083 243.16ZM188.04 243.16C188.732 242.44 189.682 242.024 190.68 242.005C191.174 241.995 191.666 242.083 192.126 242.263C192.587 242.443 193.007 242.712 193.363 243.055C193.72 243.397 194.005 243.807 194.204 244.26C194.402 244.713 194.509 245.2 194.519 245.694C194.529 246.189 194.441 246.68 194.261 247.141C194.081 247.601 193.812 248.022 193.469 248.378L170.873 271.889L181.861 283.577C182.524 284.283 182.89 285.217 182.882 286.186C182.875 287.155 182.494 288.083 181.819 288.778L181.696 288.899C181.336 289.238 180.912 289.502 180.45 289.677C179.987 289.852 179.495 289.934 179.001 289.919C178.507 289.903 178.02 289.791 177.57 289.588C177.119 289.384 176.713 289.094 176.374 288.734L165.649 277.324L142.815 301.086C142.144 301.785 141.229 302.197 140.261 302.239C139.293 302.28 138.346 301.947 137.618 301.308L137.491 301.192C137.134 300.849 136.849 300.44 136.651 299.987C136.452 299.534 136.345 299.046 136.336 298.552C136.326 298.057 136.414 297.566 136.594 297.105C136.774 296.645 137.043 296.224 137.386 295.868L160.486 271.832L144.202 254.508C143.539 253.802 143.173 252.868 143.181 251.9C143.189 250.931 143.57 250.003 144.244 249.308L144.367 249.187C145.094 248.503 146.064 248.137 147.061 248.167C148.059 248.198 149.004 248.624 149.688 249.351L165.709 266.395L188.04 243.16Z" fill="#ECB732"/>
<path d="M136.602 126.74C137.308 127.446 137.704 128.403 137.704 129.402C137.704 130.4 137.308 131.357 136.602 132.063L119.072 149.594L129.756 160.28C130.441 160.965 130.836 161.887 130.858 162.856C130.881 163.824 130.529 164.764 129.876 165.48L129.756 165.605C129.05 166.311 128.092 166.707 127.094 166.707C126.096 166.707 125.138 166.311 124.432 165.605L113.746 154.919L103.06 165.605C102.711 165.956 102.296 166.234 101.838 166.425C101.381 166.615 100.891 166.713 100.396 166.714C99.9007 166.714 99.4103 166.617 98.9528 166.428C98.4952 166.238 98.0795 165.961 97.7294 165.611C97.3793 165.26 97.1017 164.845 96.9125 164.387C96.7234 163.929 96.6263 163.439 96.6269 162.944C96.6275 162.449 96.7258 161.959 96.9161 161.501C97.1064 161.044 97.3851 160.629 97.736 160.28L108.421 149.594L90.891 132.064C90.2059 131.379 89.8111 130.457 89.7887 129.488C89.7664 128.52 90.1182 127.58 90.771 126.864L90.891 126.739C91.5971 126.033 92.5546 125.637 93.553 125.637C94.5514 125.637 95.509 126.033 96.215 126.739L113.746 144.269L131.277 126.739C131.627 126.389 132.042 126.112 132.499 125.923C132.955 125.733 133.445 125.636 133.94 125.636C134.434 125.636 134.924 125.733 135.38 125.923C135.837 126.112 136.252 126.39 136.602 126.74Z" fill="#FFC73B"/>
</g>
<defs>
<linearGradient id="paint0_linear_4_12" x1="3469.8" y1="-2633.43" x2="4604.82" y2="2874.59" gradientUnits="userSpaceOnUse">
<stop stop-color="#52CE63"/>
<stop offset="1" stop-color="#51A256"/>
</linearGradient>
<linearGradient id="paint1_linear_4_12" x1="2919.89" y1="3518.55" x2="-2588.79" y2="4652.19" gradientUnits="userSpaceOnUse">
<stop stop-color="#52CE63"/>
<stop offset="1" stop-color="#51A256"/>
</linearGradient>
<linearGradient id="paint2_linear_4_12" x1="3601.85" y1="429.62" x2="2542.13" y2="9060.36" gradientUnits="userSpaceOnUse">
<stop stop-color="#8AE99C"/>
<stop offset="1" stop-color="#52CE63"/>
</linearGradient>
<linearGradient id="paint3_linear_4_12" x1="10596.3" y1="4085.23" x2="8885.85" y2="22868.5" gradientUnits="userSpaceOnUse">
<stop stop-color="#FFE56C"/>
<stop offset="1" stop-color="#FFC63A"/>
</linearGradient>
<clipPath id="clip0_4_12">
<rect width="256" height="331" fill="white"/>
</clipPath>
</defs>
</svg>
